<svg version="1.2" xmlns="http://www.w3.org/2000/svg" viewBox="0 0 635 528" width="635" height="528">
	<title>visvasa</title>
	<defs>
		<linearGradient id="g1" x2="1" gradientUnits="userSpaceOnUse" gradientTransform="matrix(25.802,-23.377,15.365,16.959,306.931,206.515)">
			<stop offset="0" stop-color="#192694"/>
			<stop offset="1" stop-color="#683b9f"/>
		</linearGradient>
		<linearGradient id="g2" x2="1" gradientUnits="userSpaceOnUse" gradientTransform="matrix(-27.794,-20.969,13.512,-17.909,507.939,270.729)">
			<stop offset="0" stop-color="#0d2f99"/>
			<stop offset="1" stop-color="#31b5e1"/>
		</linearGradient>
	</defs>
	<style>
		.s0 { fill: #107ae0 } 
		.s1 { fill: #112073 } 
		.s2 { fill: #2ebaea } 
		.s3 { fill: url(#g1) } 
		.s4 { fill: url(#g2) } 
	</style>
	<g id="Group 1">
		<g id="Group 2">
			<path id="Visvasa" fill-rule="evenodd" class="s0" d="m38.6 498.2q1.3-3.2 2.7-7.2 1.4-4 2.5-8.1 1.2-4.1 2-8 0.7-3.8 0.7-6.9 0-2.2-0.3-3.8-0.3-1.5-0.7-2.5-0.4-1.1-0.7-1.7-0.3-0.7-0.3-1.2 0-0.8 0.4-1.3 0.4-0.5 1-0.8 0.6-0.4 1.3-0.5 0.7-0.2 1.3-0.2 1.4 0 2.3 0.4 1 0.4 1.4 1.5 0.2 0.5 0.3 1 0.1 0.6 0.1 1.2 0.1 0.5 0.1 1 0 0.4 0 0.7 0 1.5-0.5 4-0.5 2.6-1.3 5.8-0.8 3.2-1.9 6.8-1.1 3.7-2.2 7.4-1.2 3.7-2.4 7.3-1.2 3.5-2.2 6.5-1.1 3-1.9 5.3-0.8 2.2-1.2 3.4-0.3 0.8-0.8 1.2-0.5 0.5-1.1 0.8-0.6 0.3-1.3 0.4-0.7 0-1.5 0-1.4 0-2.2-0.3-0.9-0.2-1.4-0.6-0.6-0.5-0.8-0.9-0.3-0.5-0.4-0.9l-13.2-41.4q-0.4-1.2-0.8-2-0.4-0.9-1-1.4-0.5-0.5-1.3-0.8-0.8-0.2-2-0.2-1 0-2.3 0.5-1.3 0.4-2.4 1.4-1.2 0.9-2 2.3-0.8 1.3-0.8 3.1 0 1.2 0.3 1.8 0.3 0.7 0.7 1 0.4 0.3 0.7 0.4 0.5 0.1 0.6 0.1 0.9 0 1.5-0.3 0.5-0.3 1-0.6 0.4-0.3 0.8-0.6 0.4-0.3 0.9-0.3 0.5 0 0.9 0.2 0.5 0.2 0.9 0.6 0.4 0.4 0.7 1.1 0.3 0.6 0.3 1.6 0 1.4-0.6 2.4-0.5 1-1.4 1.7-0.8 0.7-1.9 1-1.1 0.4-2.2 0.4-1.7 0-3-0.6-1.3-0.6-2.2-1.6-0.9-1-1.3-2.4-0.5-1.3-0.5-2.9 0-3.6 1.4-6.3 1.4-2.7 3.7-4.5 2.3-1.8 5.2-2.7 2.9-0.9 6-0.9 3.5 0 5.7 1.1 2.3 1.1 3.6 2.7 1.4 1.7 2.2 3.8 0.8 2 1.4 4.1zm29.5 8.8q0 0.5-0.1 1.1-0.2 0.6-0.8 1.2-0.5 0.6-1.6 1-1.1 0.4-2.9 0.4-1.9 0-2.9-0.4-1.1-0.5-1.6-1.1-0.5-0.6-0.6-1.2-0.2-0.6-0.2-1v-26.9q0-1-0.4-1.7-0.5-0.8-1.6-0.8-0.6 0-1 0.2-0.4 0.2-0.9 0.6l-0.8-0.8q0.8-0.7 1.8-1.4 1-0.6 2.2-1.1 1.1-0.5 2.5-0.8 1.3-0.3 2.7-0.3 2.3 0 3.6 0.6 1.2 0.6 1.8 1.5 0.6 0.9 0.7 1.9 0.1 1 0.1 1.8zm-11.7-41q0-0.9 0.4-1.8 0.4-0.9 1.2-1.6 0.8-0.6 1.8-1 1.1-0.4 2.3-0.4 1.2 0 2.2 0.4 1 0.4 1.8 1 0.8 0.7 1.2 1.6 0.4 0.9 0.4 1.8 0 1.1-0.4 1.9-0.4 0.9-1.2 1.5-0.8 0.7-1.8 1.1-1 0.3-2.2 0.3-1.2 0-2.3-0.3-1-0.4-1.8-1.1-0.8-0.6-1.2-1.5-0.4-0.8-0.4-1.9zm31.7 10.8q-0.8 0-1.5 0.2-0.7 0.2-1.3 0.6-0.6 0.5-0.9 1.2-0.3 0.7-0.3 1.7 0 1.4 1 2.7 1 1.4 2.5 2.8 1.5 1.4 3.2 3 1.7 1.6 3.2 3.3 1.5 1.7 2.5 3.6 1 2 1 4.2 0 2.5-0.9 4.5-0.9 1.9-2.4 3.3-1.6 1.4-3.9 2.1-2.2 0.7-5 0.7-2.4 0-4.3-0.7-2-0.7-3.5-1.7-1.5-1-2.6-2.1-1-1.1-1.6-2l1.2-0.9q0.4 0.5 1.1 1.2 0.7 0.6 1.6 1.1 0.8 0.5 1.8 0.8 1 0.4 2 0.4 2.5 0 4.1-1.2 1.6-1.2 1.6-3.6 0-1.3-0.9-2.7-0.8-1.4-2.2-2.9-1.3-1.5-2.8-3.1-1.6-1.6-2.9-3.3-1.3-1.8-2.2-3.6-0.8-1.8-0.8-3.7 0-2.2 0.8-3.8 0.9-1.7 2.4-2.8 1.5-1 3.4-1.6 1.9-0.5 3.9-0.5 2.3 0 4.3 0.4 1.9 0.4 3.2 1.3 1.4 0.8 2.2 2.1 0.7 1.3 0.7 3 0 1.3-0.9 2.3-0.8 1-2.4 1-1.5 0-2.3-0.7-0.8-0.6-0.8-1.7 0-0.8 0.4-1.2 0.4-0.4 0.8-0.7 0.5-0.2 0.8-0.4 0.4-0.2 0.4-0.5 0-1-1-1.6-1.1-0.5-2.7-0.5zm14.9 3.7q-0.2-1.4-0.7-2.1-0.5-0.8-1.6-0.8-0.6 0-1 0.2-0.4 0.2-0.9 0.6l-0.7-0.9q0.8-0.6 1.8-1.3 1-0.6 2.1-1.1 1.2-0.5 2.5-0.8 1.3-0.3 2.8-0.3 2.1 0 3.3 0.7 1.3 0.7 2.1 1.8 0.7 1 1 2.2 0.4 1.3 0.5 2.2 1.3 10.6 2.9 16 1.6 5.4 3.8 5.5 1.2 0 2.3-1.4 1.2-1.3 2-3.6 0.9-2.3 1.4-5.4 0.5-3 0.5-6.5 0-2.3-0.3-3.9-0.3-1.6-0.7-2.6-0.4-1.1-0.7-1.8-0.3-0.8-0.3-1.3 0-0.5 0.4-0.9 0.4-0.3 1-0.6 0.6-0.2 1.2-0.3 0.6-0.1 1-0.1 1 0 1.4 0.3 0.5 0.2 0.8 1 0.3 1.1 0.4 2.7 0.1 1.6 0.1 3.5 0 2.7-0.3 5.9-0.4 3.2-1.2 6.5-0.7 3.2-1.9 6.2-1.1 3.1-2.7 5.4-1.6 2.4-3.6 3.8-2 1.4-4.4 1.4-2.9 0-5.1-1.7-2.1-1.7-3.6-4.4-1.4-2.6-2.4-6-1-3.3-1.6-6.7-0.6-3.3-1-6.3-0.3-3.1-0.6-5.1zm44.4-3.7q-1.2 0-2.2 0.3-1 0.3-1.8 0.7-0.7 0.4-1.1 0.9-0.4 0.5-0.4 1 0 0.5 0.5 0.7 0.6 0.3 1.2 0.6 0.7 0.3 1.2 0.8 0.6 0.5 0.6 1.6 0 0.8-0.3 1.4-0.3 0.6-0.8 1.1-0.6 0.4-1.2 0.7-0.7 0.3-1.4 0.3-2 0-3.2-1.4-1.2-1.3-1.2-3.5 0-2.1 1.1-3.6 1.1-1.5 2.9-2.5 1.8-1 4.1-1.5 2.3-0.4 4.5-0.4 2.7 0 5.2 0.6 2.5 0.6 4.4 1.8 1.9 1.3 3 3.3 1.1 2 1.1 4.8v19.7q0 0.3 0.1 0.7 0 0.4 0.1 0.7 0.2 0.3 0.5 0.5 0.2 0.2 0.8 0.2 0.6 0 1.1-0.5 0.6-0.4 1-0.9l0.9 0.7q-0.6 0.8-1.3 1.6-0.7 0.9-1.8 1.7-1 0.7-2.4 1.3-1.4 0.5-3.2 0.5-2.2 0-3.9-1.3-1.7-1.3-2.2-4.1-1.1 1.5-2.3 2.6-1.2 1-2.5 1.6-1.2 0.6-2.5 0.9-1.3 0.3-2.6 0.3-1.6 0-3.2-0.5-1.6-0.6-2.8-1.7-1.2-1.1-2-2.9-0.7-1.8-0.7-4.5 0-3.1 1.2-5.2 1.3-2 3.3-3.3 2-1.4 4.6-2.4 2.6-1 5.3-2.1 2.1-0.8 3-2.3 0.9-1.6 0.9-3.3 0-2.6-1.5-4.1-1.5-1.6-4.1-1.6zm5.5 15.3q0-0.9-0.5-1.3-0.6-0.5-1.5-0.5-1.2 0-2.3 0.6-1.1 0.5-1.9 1.6-0.9 1.1-1.3 2.7-0.5 1.6-0.5 3.6 0 2.1 0.3 3.4 0.3 1.3 0.8 2.1 0.5 0.8 1.1 1.1 0.7 0.3 1.4 0.3 0.9 0 1.7-0.5 0.8-0.4 1.4-1.2 0.6-0.7 1-1.6 0.3-0.9 0.3-1.8zm31-15.3q-0.8 0-1.5 0.2-0.7 0.2-1.3 0.6-0.5 0.5-0.8 1.2-0.3 0.7-0.3 1.7 0 1.4 0.9 2.7 1 1.4 2.5 2.8 1.5 1.4 3.2 3 1.7 1.5 3.2 3.3 1.5 1.7 2.5 3.6 1 2 1 4.2 0 2.5-0.9 4.5-0.8 1.9-2.4 3.3-1.6 1.3-3.8 2.1-2.3 0.7-5 0.7-2.4 0-4.4-0.7-1.9-0.7-3.4-1.7-1.6-1-2.6-2.1-1.1-1.1-1.7-2l1.2-0.9q0.5 0.5 1.2 1.2 0.7 0.6 1.5 1.1 0.9 0.5 1.8 0.8 1 0.4 2 0.4 2.5 0 4.1-1.2 1.6-1.2 1.6-3.6 0-1.3-0.8-2.7-0.9-1.4-2.2-2.9-1.4-1.5-2.9-3.1-1.5-1.6-2.8-3.3-1.4-1.8-2.2-3.6-0.9-1.8-0.9-3.7 0-2.2 0.9-3.9 0.9-1.6 2.3-2.7 1.5-1 3.4-1.6 1.9-0.5 3.9-0.5 2.4 0 4.3 0.4 1.9 0.4 3.3 1.3 1.4 0.8 2.1 2.1 0.8 1.3 0.8 3 0 1.3-0.9 2.3-0.9 1-2.5 1-1.4 0-2.2-0.7-0.8-0.6-0.8-1.7 0-0.8 0.4-1.2 0.3-0.4 0.8-0.7 0.4-0.2 0.8-0.4 0.4-0.2 0.3-0.5 0.1-1-1-1.6-1-0.5-2.7-0.5zm25.3 0q-1.2 0-2.2 0.3-1 0.3-1.7 0.7-0.8 0.4-1.2 0.9-0.4 0.5-0.4 1 0 0.5 0.5 0.7 0.6 0.3 1.2 0.5 0.7 0.3 1.2 0.9 0.6 0.5 0.6 1.6 0 0.8-0.3 1.4-0.3 0.6-0.8 1.1-0.5 0.4-1.2 0.7-0.7 0.3-1.4 0.3-2 0-3.2-1.4-1.2-1.3-1.2-3.5 0-2.1 1.2-3.6 1.1-1.5 2.9-2.5 1.8-1 4-1.5 2.3-0.4 4.5-0.4 2.8 0 5.2 0.6 2.5 0.6 4.4 1.8 1.9 1.3 3 3.3 1.2 2 1.2 4.8v19.7q0 0.3 0 0.7 0 0.4 0.2 0.7 0.1 0.3 0.4 0.5 0.3 0.2 0.8 0.2 0.6 0 1.1-0.5 0.6-0.4 1-0.9l0.9 0.7q-0.5 0.7-1.3 1.6-0.7 0.9-1.8 1.7-1 0.7-2.4 1.2-1.4 0.6-3.2 0.6-2.1 0-3.9-1.3-1.7-1.3-2.2-4.1-1.1 1.5-2.3 2.6-1.2 1-2.5 1.6-1.2 0.6-2.5 0.9-1.2 0.3-2.5 0.3-1.7 0-3.3-0.6-1.5-0.5-2.8-1.6-1.2-1.1-2-3-0.7-1.8-0.7-4.4 0-3.1 1.2-5.2 1.3-2 3.3-3.4 2.1-1.3 4.7-2.3 2.6-1 5.3-2.1 2-0.8 2.9-2.3 0.9-1.6 0.9-3.3 0-2.6-1.5-4.1-1.5-1.6-4.1-1.6zm5.5 15.3q0-0.9-0.5-1.3-0.6-0.5-1.4-0.5-1.3 0-2.4 0.6-1.1 0.5-1.9 1.6-0.8 1.1-1.3 2.7-0.5 1.5-0.5 3.6 0 2.1 0.3 3.4 0.3 1.3 0.8 2.1 0.5 0.8 1.2 1.1 0.6 0.3 1.3 0.3 1 0 1.8-0.5 0.8-0.5 1.3-1.2 0.6-0.7 1-1.6 0.3-0.9 0.3-1.8z"/>
			<path id="infra" fill-rule="evenodd" class="s0" d="m341.3 458.4q-1 0-1.8 0.4-0.9 0.4-1.6 1.4-0.6 0.9-1 2.3-0.4 1.4-0.4 3.5v8.5h7.7v2.2q0.3-0.2 0.6-0.4 1-0.7 2.2-1.1 1.1-0.5 2.4-0.9 1.4-0.3 2.8-0.3 1.5 0 2.6 0.4 1.1 0.4 1.7 1.1 0.7 0.6 1.1 1.4 0.4 0.8 0.6 1.6 0.2 0.9 0.2 1.6 0 0.8 0 1.3 1.4-2 2.8-3.7 0.7-0.7 1.4-1.3 0.7-0.7 1.5-1.2 0.8-0.5 1.6-0.9 0.9-0.3 1.7-0.3 1.8 0 2.8 1.1 1 1.1 1 3 0 1.2-0.2 2.3-0.2 1.1-0.7 2.6h-1q-0.2-1.1-1-1.8-0.7-0.7-2.2-0.7-1.1 0-2.1 0.4-1.1 0.4-2.1 1-1 0.6-1.9 1.3-0.8 0.7-1.6 1.3v22.6q0 0.5-0.1 1.1-0.2 0.6-0.7 1.2-0.5 0.5-1.6 0.9-1 0.4-2.9 0.4-1.8 0-2.9-0.4-1.1-0.4-1.6-1-0.6-0.6-0.7-1.3-0.2-0.6-0.2-1v-26.8q0-1-0.4-1.8-0.5-0.7-1.6-0.7-0.6 0-1 0.2-0.4 0.2-0.9 0.6l-0.8-0.9q0.4-0.3 0.8-0.6h-7.3v27.5q0 4.7-1.2 8.7-1.2 4-3.7 6.9-2.5 2.9-6.3 4.6-3.8 1.6-8.8 1.6-1.8 0-3.4-0.3-1.6-0.3-2.9-0.8-1.2-0.5-2-1.3-0.7-0.7-0.7-1.5 0-0.7 0.1-1.3 0.2-0.7 0.6-1.2 0.3-0.5 0.8-0.8 0.5-0.4 1.2-0.4 0.4 0 0.7 0.4 0.3 0.4 0.6 1 0.3 0.5 0.7 1.2 0.4 0.7 1 1.2 0.6 0.6 1.6 1 0.9 0.4 2.2 0.4 1.8 0 3.1-0.8 1.4-0.7 2.4-1.9 0.9-1.3 1.6-3 0.7-1.7 1-3.6 0.4-2 0.6-4.1 0.1-2.1 0.1-4.3v-29.2h-6.4v-2.5h6.4v-4.1q0-3 0.8-5.3 0.7-2.3 2-3.9 1.2-1.6 2.8-2.6 1.6-1 3.2-1.6 1.6-0.6 3.1-0.8 1.6-0.2 2.7-0.2 2.5 0 4.4 0.4 1.9 0.3 3.2 0.9 1.3 0.7 1.9 1.5 0.7 0.8 0.7 1.6 0 0.6-0.2 1.3-0.2 0.6-0.5 1.1-0.4 0.6-0.9 0.9-0.5 0.3-1.1 0.3-0.4 0-0.7-0.4-0.3-0.4-0.7-1-0.3-0.6-0.7-1.4-0.5-0.7-1.1-1.3-0.6-0.7-1.4-1.1-0.8-0.4-2-0.4zm43.8 18.5q-1.2 0-2.2 0.3-1 0.2-1.8 0.7-0.7 0.4-1.1 0.9-0.4 0.5-0.4 0.9 0 0.6 0.5 0.8 0.5 0.2 1.2 0.5 0.7 0.3 1.2 0.9 0.5 0.5 0.5 1.6 0 0.7-0.3 1.4-0.3 0.6-0.7 1-0.6 0.5-1.2 0.8-0.7 0.2-1.5 0.2-1.9 0-3.1-1.3-1.2-1.3-1.2-3.5 0-2.1 1.1-3.7 1.1-1.5 2.9-2.4 1.8-1 4.1-1.5 2.2-0.5 4.5-0.5 2.7 0 5.2 0.6 2.5 0.6 4.4 1.9 1.8 1.3 3 3.3 1.1 2 1.1 4.8v19.7q0 0.3 0.1 0.7 0 0.3 0.1 0.6 0.2 0.4 0.4 0.6 0.3 0.2 0.8 0.2 0.7 0 1.2-0.5 0.5-0.5 1-1l0.8 0.8q-0.5 0.7-1.2 1.6-0.7 0.9-1.8 1.6-1 0.8-2.4 1.3-1.4 0.5-3.2 0.5-2.2 0-3.9-1.3-1.7-1.3-2.2-4-1.1 1.5-2.3 2.5-1.2 1-2.5 1.6-1.2 0.7-2.5 0.9-1.3 0.3-2.6 0.3-1.6 0-3.2-0.5-1.6-0.5-2.8-1.6-1.3-1.2-2-3-0.8-1.8-0.8-4.4 0.1-3.2 1.3-5.2 1.3-2 3.3-3.4 2-1.4 4.6-2.3 2.6-1 5.3-2.1 2.1-0.8 3-2.4 0.9-1.6 0.9-3.2 0-2.6-1.5-4.2-1.5-1.5-4.1-1.5zm5.5 15.2q0-0.8-0.6-1.3-0.5-0.4-1.4-0.4-1.2 0-2.3 0.5-1.1 0.6-1.9 1.7-0.9 1-1.4 2.6-0.4 1.6-0.4 3.7 0 2 0.3 3.3 0.2 1.4 0.7 2.1 0.6 0.8 1.2 1.1 0.7 0.4 1.4 0.4 0.9 0 1.7-0.5 0.8-0.5 1.4-1.2 0.6-0.8 0.9-1.6 0.4-1 0.4-1.9zm-114.4 13.5q0 2.7-1.4 3.9-1.5 1.2-4.3 1.2-3 0-4.4-1.2-1.4-1.2-1.4-3.9v-41.9q0-0.8-0.1-1.2-0.2-0.5-0.5-0.7-0.3-0.3-0.8-0.4-0.4-0.1-0.9-0.1-0.8 0-1.9 0.3-1.2 0.2-2.4 0.7-1.3 0.5-2.5 1.2-1.3 0.7-2.3 1.6-1 0.9-1.6 2-0.6 1.2-0.6 2.4 0 1.2 0.3 1.8 0.2 0.7 0.6 1 0.4 0.3 0.8 0.4 0.4 0.1 0.6 0.1 0.9 0 1.4-0.3 0.6-0.3 1-0.6 0.5-0.3 0.9-0.6 0.4-0.3 0.9-0.3 0.4 0 0.9 0.2 0.5 0.2 0.9 0.6 0.4 0.4 0.6 1.1 0.3 0.6 0.3 1.6 0 1.4-0.5 2.4-0.6 1-1.4 1.7-0.9 0.7-2 1-1.1 0.4-2.1 0.4-1.7 0-3.1-0.6-1.3-0.6-2.2-1.6-1-1-1.5-2.4-0.4-1.3-0.4-2.9-0.1-2.4 0.8-4.4 0.9-2 2.4-3.6 1.5-1.6 3.6-2.8 2-1.2 4.4-2 2.3-0.8 4.9-1.2 2.6-0.4 5.2-0.4 2.8 0 4.4 0.6 1.6 0.5 2.3 1.3 0.8 0.7 0.9 1.6 0.2 0.8 0.2 1.4zm30-12.8q0-4.4-0.4-7-0.4-2.7-1-4-0.7-1.4-1.5-1.8-0.8-0.5-1.6-0.5-1 0-1.8 0.6-0.8 0.5-1.4 1.2-0.5 0.7-0.9 1.4-0.5 0.7-0.7 1v23.3q0 0.4-0.2 1.1-0.1 0.6-0.6 1.2-0.6 0.6-1.6 1-1.1 0.4-2.9 0.4-1.9 0-3-0.5-1-0.4-1.6-1-0.5-0.6-0.7-1.2-0.1-0.6-0.1-1v-26.9q0-1-0.5-1.7-0.5-0.8-1.6-0.8-0.6 0-1 0.2-0.4 0.2-0.9 0.6l-0.7-0.9q0.8-0.6 1.8-1.3 1-0.6 2.1-1.1 1.2-0.5 2.5-0.8 1.3-0.3 2.8-0.3 2.2 0 3.5 0.7 1.3 0.8 1.8 1.8 0.6 1.1 0.8 2.2 0.1 1.1 0.1 1.9 1.3-1.8 2.9-3.3 0.7-0.6 1.5-1.2 0.8-0.6 1.7-1.1 0.9-0.5 2-0.7 1-0.3 2.1-0.3 2.3 0 4.2 0.9 1.8 0.9 3.1 3 1.2 2.1 1.9 5.6 0.6 3.5 0.6 8.7 0 5.1-0.9 8.8-0.9 3.7-2.3 6.3-1.5 2.7-3.3 4.3-1.9 1.7-3.8 2.6-1.8 0.9-3.6 1.3-1.7 0.4-3 0.4l-0.3-1.4q1-0.3 1.9-0.8 0.9-0.5 1.6-1.5 0.7-1 1.3-2.6 0.6-1.5 1-3.9 0.4-2.3 0.6-5.5 0.1-3.2 0.1-7.4z"/>
			<path id="groups" fill-rule="evenodd" class="s0" d="m466.7 488.7h-5v20.5q0 4.7-1.6 8.2-1.6 3.6-4.5 5.9-2.9 2.4-6.8 3.5-3.9 1.2-8.6 1.2-1.8 0-3.4-0.3-1.6-0.3-2.9-0.8-1.2-0.5-2-1.3-0.7-0.7-0.7-1.5 0-0.7 0.1-1.3 0.2-0.6 0.6-1.2 0.3-0.5 0.8-0.8 0.5-0.4 1.1-0.4 0.5 0 0.7 0.4 0.3 0.4 0.6 1 0.3 0.5 0.8 1.2 0.4 0.7 1 1.2 0.6 0.6 1.5 1 0.9 0.4 2.3 0.4 2.7 0 4.7-1 2.1-1 3.5-2.7 1.3-1.8 2.1-4.3 0.7-2.4 0.7-5.4v-2.1q-1.5 0.3-3 0.5-1.4 0.1-3.3 0.1-4.7 0-8.9-1.4-4.1-1.5-7.2-4.5-3.1-3-4.9-7.7-1.7-4.7-1.7-11.2 0-4.6 0.9-8.4 1-3.8 2.8-6.9 1.7-3.1 4.1-5.4 2.4-2.3 5.2-3.9 2.8-1.6 5.9-2.4 3.1-0.8 6.3-0.8 3 0 5.7 0.6 2.6 0.6 4.5 1.7 1.9 1.1 3 2.7 1.1 1.6 1.1 3.7 0.1 0.9-0.3 1.9-0.3 1.1-0.9 1.9-0.7 0.9-1.6 1.4-1 0.5-2.2 0.5-1.5 0-2.2-0.8-0.8-0.9-1.1-2.1-0.4-1.3-0.6-2.8-0.1-1.5-0.5-2.7-0.5-1.3-1.3-2.1-0.9-0.9-2.5-0.9-1.2 0-2.8 0.6-1.5 0.6-3.1 1.9-1.5 1.3-3 3.2-1.5 2-2.7 4.7-1.2 2.8-1.9 6.4-0.7 3.5-0.7 8 0 4.9 0.6 8.4 0.6 3.5 1.7 5.9 1 2.3 2.3 3.7 1.4 1.4 2.8 2.1 1.4 0.7 2.8 0.8 1.4 0.2 2.6 0.2 1.3 0 2.3-0.2 1-0.1 1.8-0.5v-17.6h-6.2v-3.1h21.2zm16.1-7.3q1.4-2 2.8-3.7 0.7-0.7 1.4-1.3 0.7-0.7 1.5-1.2 0.8-0.5 1.6-0.8 0.9-0.3 1.7-0.4 1.8 0.1 2.8 1.1 1 1.1 1 3 0 1.2-0.2 2.3-0.2 1.1-0.7 2.6h-1q-0.2-1.1-1-1.8-0.8-0.7-2.2-0.7-1.1 0-2.1 0.4-1.1 0.4-2.1 1-1 0.6-1.9 1.3-0.8 0.7-1.6 1.3v22.6q0 0.5-0.1 1.1-0.2 0.6-0.7 1.2-0.5 0.5-1.6 0.9-1.1 0.4-2.9 0.4-1.8 0-2.9-0.4-1.1-0.4-1.6-1-0.6-0.6-0.7-1.2-0.2-0.7-0.2-1.1v-26.8q0-1-0.4-1.8-0.5-0.7-1.6-0.7-0.6 0-1 0.2-0.4 0.2-0.9 0.6l-0.8-0.9q0.8-0.7 1.8-1.3 1-0.6 2.2-1.1 1.1-0.5 2.4-0.8 1.4-0.3 2.8-0.4 1.5 0 2.6 0.5 1 0.3 1.7 1 0.7 0.6 1.1 1.4 0.4 0.8 0.6 1.7 0.2 0.8 0.2 1.5 0 0.8 0 1.3zm14.3 11q0-4.6 1.3-8 1.3-3.5 3.6-5.8 2.2-2.3 5.1-3.4 2.9-1.2 6.1-1.2 3.2 0.1 6.1 1.1 3 1.1 5.2 3.3 2.2 2.2 3.5 5.5 1.3 3.4 1.3 8 0 4.5-1.3 8.1-1.3 3.5-3.5 5.9-2.2 2.4-5.2 3.6-2.9 1.2-6.1 1.2-3.2 0-6.1-1.1-2.9-1.2-5.1-3.5-2.3-2.3-3.6-5.7-1.3-3.5-1.3-8zm21.4-0.4q0-2.8-0.2-5.4-0.2-2.6-0.7-4.6-0.6-2-1.6-3.2-1.1-1.2-2.8-1.2-1.7 0-2.7 1.3-1.1 1.2-1.6 3.3-0.6 2.1-0.8 4.7-0.1 2.7-0.1 5.5 0 2.7 0.1 5.4 0.2 2.7 0.8 4.8 0.5 2.1 1.6 3.3 1 1.3 2.7 1.3 1.7 0 2.8-1.3 1-1.4 1.6-3.5 0.5-2.2 0.7-4.9 0.2-2.7 0.2-5.5zm47.8 12.1q0 0.3 0 0.7 0 0.4 0.2 0.7 0.1 0.3 0.4 0.5 0.3 0.3 0.8 0.3 0.7 0 1.2-0.5 0.5-0.5 1-1l0.8 0.8q-0.5 0.7-1.3 1.6-0.8 0.9-1.9 1.7-1.1 0.8-2.6 1.3-1.4 0.5-3.2 0.5-1.5 0-2.6-0.4-1.2-0.4-2-1-0.8-0.7-1.1-1.6-0.4-1-0.4-2v-1.6q-1.8 1.9-3.7 3.3-0.8 0.7-1.8 1.3-0.9 0.5-1.9 1-1 0.5-2.1 0.8-1.1 0.2-2.1 0.2-2.1 0-3.6-0.7-1.5-0.8-2.4-2-0.9-1.2-1.3-2.7-0.4-1.6-0.4-3.1v-21.5q0-0.3-0.1-0.7 0-0.4-0.1-0.7-0.2-0.3-0.5-0.5-0.2-0.3-0.8-0.3-0.6 0-1.1 0.5-0.6 0.5-1 1l-0.9-0.8q0.6-0.7 1.3-1.6 0.8-0.9 1.9-1.7 1.2-0.8 2.6-1.3 1.5-0.6 3.2-0.6 1.6 0 2.7 0.5 1.2 0.3 1.9 1 0.8 0.7 1.2 1.6 0.4 1 0.4 2v23.3q0 0.4 0.1 0.9 0.2 0.5 0.5 1 0.3 0.4 0.7 0.6 0.5 0.3 1.1 0.3 1 0 2-0.5 1-0.5 1.9-1.3 0.8-0.7 1.4-1.4 0.6-0.7 0.9-1v-20.3q0-0.3-0.1-0.7 0-0.4-0.1-0.7-0.2-0.3-0.4-0.5-0.3-0.3-0.8-0.3-0.7 0-1.2 0.5-0.5 0.5-1 1l-0.8-0.8q0.5-0.7 1.3-1.6 0.7-0.9 1.9-1.7 1.1-0.8 2.5-1.3 1.5-0.6 3.2-0.6 1.6 0 2.7 0.5 1.2 0.3 1.9 1 0.8 0.7 1.2 1.6 0.4 1 0.4 2zm9.5-23.9q0-1.1-0.4-1.8-0.5-0.8-1.6-0.8-0.6 0-1 0.2-0.4 0.3-0.9 0.6l-0.8-0.8q0.8-0.7 1.8-1.3 1-0.7 2.2-1.2 1.1-0.5 2.5-0.8 1.3-0.3 2.7-0.3 1.6 0 2.7 0.5 1.1 0.5 1.9 1.2 0.7 0.7 1.1 1.4 0.4 0.8 0.5 1.3 0.7-1 1.6-1.8 1-0.8 2.1-1.4 1.1-0.5 2.4-0.9 1.3-0.3 2.6-0.3 2.8 0 5.1 1.2 2.2 1.1 3.9 3.4 1.6 2.3 2.5 5.6 0.8 3.3 0.8 7.7 0 5.1-1 8.7-1.1 3.5-2.8 5.8-1.7 2.3-4 3.3-2.2 1-4.5 1-1.9 0-3.3-0.4-1.5-0.3-2.5-0.9-1.1-0.6-1.7-1.1-0.8-0.6-1.2-1v17q0 0.4-0.1 1.1-0.1 0.6-0.7 1.2-0.5 0.5-1.6 1-1 0.4-2.9 0.4-1.8 0-2.9-0.5-1.1-0.4-1.6-1-0.6-0.6-0.7-1.2-0.2-0.6-0.2-1zm10.7 22.2q0 0.2 0.3 0.9 0.2 0.7 0.7 1.5 0.6 0.7 1.4 1.3 0.8 0.5 2 0.5 1.5 0 2.6-1.1 1.1-1.2 1.8-3.2 0.7-2 1-4.7 0.3-2.6 0.3-5.6 0-3.8-0.4-6.3-0.4-2.6-1.2-4.2-0.7-1.6-1.8-2.3-1.1-0.7-2.4-0.7-0.8 0-1.5 0.4-0.8 0.4-1.4 1.1-0.6 0.6-1 1.4-0.4 0.8-0.4 1.6zm38.8-25.6q-0.8 0-1.5 0.3-0.7 0.2-1.3 0.6-0.5 0.5-0.8 1.2-0.4 0.7-0.3 1.7-0.1 1.4 0.9 2.7 1 1.3 2.5 2.8 1.5 1.4 3.2 3 1.7 1.5 3.2 3.3 1.5 1.7 2.5 3.6 1 2 1 4.2 0 2.5-0.9 4.5-0.8 1.9-2.4 3.3-1.6 1.3-3.8 2-2.3 0.8-5 0.8-2.4 0-4.4-0.7-1.9-0.7-3.4-1.7-1.6-1-2.6-2.1-1.1-1.1-1.7-2l1.2-0.9q0.5 0.5 1.2 1.1 0.6 0.7 1.5 1.2 0.9 0.5 1.8 0.8 1 0.4 2 0.4 2.5 0 4.1-1.2 1.6-1.2 1.6-3.6 0-1.3-0.8-2.7-0.9-1.5-2.2-2.9-1.4-1.5-2.9-3.1-1.5-1.7-2.8-3.4-1.4-1.7-2.2-3.5-0.9-1.8-0.9-3.7 0-2.2 0.9-3.9 0.9-1.6 2.3-2.7 1.5-1.1 3.4-1.6 1.9-0.5 3.9-0.5 2.4 0 4.3 0.4 1.9 0.4 3.3 1.3 1.3 0.8 2.1 2.1 0.7 1.3 0.7 3 0 1.3-0.8 2.3-0.9 1-2.5 1-1.5 0-2.2-0.7-0.8-0.6-0.8-1.7 0-0.8 0.3-1.2 0.4-0.4 0.9-0.7 0.4-0.2 0.8-0.4 0.3-0.2 0.3-0.5 0-1-1-1.6-1-0.6-2.7-0.6z"/>
		</g>
		<g id="Group 3">
			<path id="Object 8" class="s1" d="m289.4 194.8l8.5-11.7c38.2 55.3 88.6 78.7 147.5 66.6-74.8 38.9-113 4.2-156-54.9z"/>
			<path id="Object 9" class="s2" d="m113.3 58c37.2-25.7 77.4-13.9 102.4 18.4-26.3-26.7-62.5-36.7-97.5-12.6-36.4 25.1-42 71-23.5 112.8l3.2 5.9c-4.2-5.7-8.3-10.7-11.5-17.1-18.1-36.8-7.7-83.5 26.9-107.4z"/>
			<path id="Object 10" class="s3" d="m297.9 183.1q44.9-72 89.9-144c1.5-2.5 2.4-3.9 4.7-5.8 10.6-9 23.1-0.6 19.7 13.3-0.6 2.6-1.3 3.6-2.7 5.8q-22.5 36.7-44.9 73.3c-1.5 2.3-2.5 3.8-3 6.6-1.1 5.7 1.8 10.3 6.1 11.7 3.9 1.3 6.3 0 9.1-2.7 1.6-1.6 3.1-3.5 4.4-5.7q36.7-60.9 73.4-121.8c1.6-2.7 2.2-3.8 4.6-5.9 14-12.5 26.8-3.8 23.5 9.3-0.6 2.5-1.4 3.6-2.8 5.8q-53 85.3-106.1 170.7c-4 8.7-3.3 16.9 3.9 19.1 6.2 1 10.3-3.7 13.9-9.9q57.8-94.4 115.5-188.8c1.6-2.6 2.7-4.6 4.8-6.8 13-13.7 26.9-6.7 23.6 9.3-0.6 3.2-1.5 4.2-3.2 6.9q-41.1 65.9-82.2 131.7c-6.4 9.8-5.4 18.5 0.4 20.9 4.2 1.7 7.2 0.1 10.5-2.4 4.3-3.2 7.1-7.3 9.3-11.7q24.6-40.6 49.1-81.1c10.5-15.4 25.3-12.2 23.8 2.8-1.4 10.2-65.2 110.8-97.8 166-36.4 12.4-101.4 6.6-147.5-66.6z"/>
			<path id="Object 11" class="s2" d="m287.6 192c37.5 82.2 109.1 95.8 157.8 57.6-91.7 47.2-133.1-29.3-157.8-57.6z"/>
			<path id="Object 12" class="s4" d="m445.4 249.7c-25.1 41-50.2 82-75.3 123-8.5 13.8-15.4 25.2-27.4 36.7-22.2 21.2-48.5 28.8-77.2 16.9-13.4-5.5-19.2-10.3-28.4-21-42.9-49.6-103.1-165.2-138.3-221.3-3.4-5.5-5.7-9.2-8.1-15.3-12.5-32.3-8.9-76.9 22.9-101.6 6.1-4.8 14.5-9.8 21.7-12.7 25-9.9 52.4-2.9 74 15.9 5.1 4.4 6.3 6.7 9.8 12.4q35.7 57 71.3 114c37.7 60.1 83.8 94.7 155 53z"/>
		</g>
	</g>
</svg>