<svg version="1.2" xmlns="http://www.w3.org/2000/svg" viewBox="0 0 635 386" width="635" height="386">
	<title>visvasa</title>
	<defs>
		<linearGradient id="g1" x2="1" gradientUnits="userSpaceOnUse" gradientTransform="matrix(16.722,-15.15,9.958,10.991,322.6,133.84)">
			<stop offset="0" stop-color="#192694"/>
			<stop offset="1" stop-color="#683b9f"/>
		</linearGradient>
		<linearGradient id="g2" x2="1" gradientUnits="userSpaceOnUse" gradientTransform="matrix(-18.013,-13.59,8.757,-11.607,452.87,175.455)">
			<stop offset="0" stop-color="#0d2f99"/>
			<stop offset="1" stop-color="#31b5e1"/>
		</linearGradient>
	</defs>
	<style>
		.s0 { fill: #107ae0 } 
		.s1 { fill: #112073 } 
		.s2 { fill: #2ebaea } 
		.s3 { fill: url(#g1) } 
		.s4 { fill: url(#g2) } 
	</style>
	<g id="Group 1">
		<g id="Group 2">
			<path id="Visvasa" fill-rule="evenodd" class="s0" d="m38.6 356.2q1.3-3.2 2.7-7.2 1.4-4 2.5-8.1 1.2-4.1 2-8 0.7-3.8 0.7-6.9 0-2.2-0.3-3.8-0.3-1.5-0.7-2.5-0.4-1.1-0.7-1.7-0.3-0.7-0.3-1.2 0-0.8 0.4-1.3 0.4-0.5 1-0.8 0.6-0.4 1.3-0.5 0.7-0.2 1.3-0.2 1.4 0 2.3 0.4 1 0.4 1.4 1.5 0.2 0.5 0.3 1 0.1 0.6 0.1 1.2 0.1 0.5 0.1 1 0 0.4 0 0.7 0 1.5-0.5 4-0.5 2.6-1.3 5.8-0.8 3.2-1.9 6.8-1.1 3.7-2.2 7.4-1.2 3.7-2.4 7.3-1.2 3.5-2.2 6.5-1.1 3-1.9 5.3-0.8 2.2-1.2 3.4-0.3 0.8-0.8 1.2-0.5 0.5-1.1 0.8-0.6 0.3-1.3 0.4-0.7 0-1.5 0-1.4 0-2.2-0.3-0.9-0.2-1.4-0.6-0.6-0.5-0.8-0.9-0.3-0.5-0.4-0.9l-13.2-41.4q-0.4-1.2-0.8-2-0.4-0.9-1-1.4-0.5-0.5-1.3-0.8-0.8-0.2-2-0.2-1 0-2.3 0.5-1.3 0.4-2.4 1.4-1.2 0.9-2 2.3-0.8 1.3-0.8 3.1 0 1.2 0.3 1.8 0.3 0.7 0.7 1 0.4 0.3 0.7 0.4 0.5 0.1 0.6 0.1 0.9 0 1.5-0.3 0.5-0.3 1-0.6 0.4-0.3 0.8-0.6 0.4-0.3 0.9-0.3 0.5 0 0.9 0.2 0.5 0.2 0.9 0.6 0.4 0.4 0.7 1.1 0.3 0.6 0.3 1.6 0 1.4-0.6 2.4-0.5 1-1.4 1.7-0.8 0.7-1.9 1-1.1 0.4-2.2 0.4-1.7 0-3-0.6-1.3-0.6-2.2-1.6-0.9-1-1.3-2.4-0.5-1.3-0.5-2.9 0-3.6 1.4-6.3 1.4-2.7 3.7-4.5 2.3-1.8 5.2-2.7 2.9-0.9 6-0.9 3.5 0 5.7 1.1 2.3 1.1 3.6 2.7 1.4 1.7 2.2 3.8 0.8 2 1.4 4.1zm29.5 8.8q0 0.5-0.1 1.1-0.2 0.6-0.8 1.2-0.5 0.6-1.6 1-1.1 0.4-2.9 0.4-1.9 0-2.9-0.4-1.1-0.5-1.6-1.1-0.5-0.6-0.6-1.2-0.2-0.6-0.2-1v-26.9q0-1-0.4-1.7-0.5-0.8-1.6-0.8-0.6 0-1 0.2-0.4 0.2-0.9 0.6l-0.8-0.8q0.8-0.7 1.8-1.4 1-0.6 2.2-1.1 1.1-0.5 2.5-0.8 1.3-0.3 2.7-0.3 2.3 0 3.6 0.6 1.2 0.6 1.8 1.5 0.6 0.9 0.7 1.9 0.1 1 0.1 1.8zm-11.7-41q0-0.9 0.4-1.8 0.4-0.9 1.2-1.6 0.8-0.6 1.8-1 1.1-0.4 2.3-0.4 1.2 0 2.2 0.4 1 0.4 1.8 1 0.8 0.7 1.2 1.6 0.4 0.9 0.4 1.8 0 1.1-0.4 1.9-0.4 0.9-1.2 1.5-0.8 0.7-1.8 1.1-1 0.3-2.2 0.3-1.2 0-2.3-0.3-1-0.4-1.8-1.1-0.8-0.6-1.2-1.5-0.4-0.8-0.4-1.9zm31.7 10.8q-0.8 0-1.5 0.2-0.7 0.2-1.3 0.6-0.6 0.5-0.9 1.2-0.3 0.7-0.3 1.7 0 1.4 1 2.7 1 1.4 2.5 2.8 1.5 1.4 3.2 3 1.7 1.6 3.2 3.3 1.5 1.7 2.5 3.6 1 2 1 4.2 0 2.5-0.9 4.5-0.9 1.9-2.4 3.3-1.6 1.4-3.9 2.1-2.2 0.7-5 0.7-2.4 0-4.3-0.7-2-0.7-3.5-1.7-1.5-1-2.6-2.1-1-1.1-1.6-2l1.2-0.9q0.4 0.5 1.1 1.2 0.7 0.6 1.6 1.1 0.8 0.5 1.8 0.8 1 0.4 2 0.4 2.5 0 4.1-1.2 1.6-1.2 1.6-3.6 0-1.3-0.9-2.7-0.8-1.4-2.2-2.9-1.3-1.5-2.8-3.1-1.6-1.6-2.9-3.3-1.3-1.8-2.2-3.6-0.8-1.8-0.8-3.7 0-2.2 0.8-3.8 0.9-1.7 2.4-2.8 1.5-1 3.4-1.6 1.9-0.5 3.9-0.5 2.3 0 4.3 0.4 1.9 0.4 3.2 1.3 1.4 0.8 2.2 2.1 0.7 1.3 0.7 3 0 1.3-0.9 2.3-0.8 1-2.4 1-1.5 0-2.3-0.7-0.8-0.6-0.8-1.7 0-0.8 0.4-1.2 0.4-0.4 0.8-0.7 0.5-0.2 0.8-0.4 0.4-0.2 0.4-0.5 0-1-1-1.6-1.1-0.5-2.7-0.5zm14.9 3.7q-0.2-1.4-0.7-2.1-0.5-0.8-1.6-0.8-0.6 0-1 0.2-0.4 0.2-0.9 0.6l-0.7-0.9q0.8-0.6 1.8-1.3 1-0.6 2.1-1.1 1.2-0.5 2.5-0.8 1.3-0.3 2.8-0.3 2.1 0 3.3 0.7 1.3 0.7 2.1 1.8 0.7 1 1 2.2 0.4 1.3 0.5 2.2 1.3 10.6 2.9 16 1.6 5.4 3.8 5.5 1.2 0 2.3-1.4 1.2-1.3 2-3.6 0.9-2.3 1.4-5.4 0.5-3 0.5-6.5 0-2.3-0.3-3.9-0.3-1.6-0.7-2.6-0.4-1.1-0.7-1.8-0.3-0.8-0.3-1.3 0-0.5 0.4-0.9 0.4-0.3 1-0.6 0.6-0.2 1.2-0.3 0.6-0.1 1-0.1 1 0 1.4 0.3 0.5 0.2 0.8 1 0.3 1.1 0.4 2.7 0.1 1.6 0.1 3.5 0 2.7-0.3 5.9-0.4 3.2-1.2 6.5-0.7 3.2-1.9 6.2-1.1 3.1-2.7 5.4-1.6 2.4-3.6 3.8-2 1.4-4.4 1.4-2.9 0-5.1-1.7-2.1-1.7-3.6-4.4-1.4-2.6-2.4-6-1-3.3-1.6-6.7-0.6-3.3-1-6.3-0.3-3.1-0.6-5.1zm44.4-3.7q-1.2 0-2.2 0.3-1 0.3-1.8 0.7-0.7 0.4-1.1 0.9-0.4 0.5-0.4 1 0 0.5 0.5 0.7 0.6 0.3 1.2 0.6 0.7 0.3 1.2 0.8 0.6 0.5 0.6 1.6 0 0.8-0.3 1.4-0.3 0.6-0.8 1.1-0.6 0.4-1.2 0.7-0.7 0.3-1.4 0.3-2 0-3.2-1.4-1.2-1.3-1.2-3.5 0-2.1 1.1-3.6 1.1-1.5 2.9-2.5 1.8-1 4.1-1.5 2.3-0.4 4.5-0.4 2.7 0 5.2 0.6 2.5 0.6 4.4 1.8 1.9 1.3 3 3.3 1.1 2 1.1 4.8v19.7q0 0.3 0.1 0.7 0 0.4 0.1 0.7 0.2 0.3 0.5 0.5 0.2 0.2 0.8 0.2 0.6 0 1.1-0.5 0.6-0.4 1-0.9l0.9 0.7q-0.6 0.8-1.3 1.6-0.7 0.9-1.8 1.7-1 0.7-2.4 1.3-1.4 0.5-3.2 0.5-2.2 0-3.9-1.3-1.7-1.3-2.2-4.1-1.1 1.5-2.3 2.6-1.2 1-2.5 1.6-1.2 0.6-2.5 0.9-1.3 0.3-2.6 0.3-1.6 0-3.2-0.5-1.6-0.6-2.8-1.7-1.2-1.1-2-2.9-0.7-1.8-0.7-4.5 0-3.1 1.2-5.2 1.3-2 3.3-3.3 2-1.4 4.6-2.4 2.6-1 5.3-2.1 2.1-0.8 3-2.3 0.9-1.6 0.9-3.3 0-2.6-1.5-4.1-1.5-1.6-4.1-1.6zm5.5 15.3q0-0.9-0.5-1.3-0.6-0.5-1.5-0.5-1.2 0-2.3 0.6-1.1 0.5-1.9 1.6-0.9 1.1-1.3 2.7-0.5 1.6-0.5 3.6 0 2.1 0.3 3.4 0.3 1.3 0.8 2.1 0.5 0.8 1.1 1.1 0.7 0.3 1.4 0.3 0.9 0 1.7-0.5 0.8-0.4 1.4-1.2 0.6-0.7 1-1.6 0.3-0.9 0.3-1.8zm31-15.3q-0.8 0-1.5 0.2-0.7 0.2-1.3 0.6-0.5 0.5-0.8 1.2-0.3 0.7-0.3 1.7 0 1.4 0.9 2.7 1 1.4 2.5 2.8 1.5 1.4 3.2 3 1.7 1.5 3.2 3.3 1.5 1.7 2.5 3.6 1 2 1 4.2 0 2.5-0.9 4.5-0.8 1.9-2.4 3.3-1.6 1.3-3.8 2.1-2.3 0.7-5 0.7-2.4 0-4.4-0.7-1.9-0.7-3.4-1.7-1.6-1-2.6-2.1-1.1-1.1-1.7-2l1.2-0.9q0.5 0.5 1.2 1.2 0.7 0.6 1.5 1.1 0.9 0.5 1.8 0.8 1 0.4 2 0.4 2.5 0 4.1-1.2 1.6-1.2 1.6-3.6 0-1.3-0.8-2.7-0.9-1.4-2.2-2.9-1.4-1.5-2.9-3.1-1.5-1.6-2.8-3.3-1.4-1.8-2.2-3.6-0.9-1.8-0.9-3.7 0-2.2 0.9-3.9 0.9-1.6 2.3-2.7 1.5-1 3.4-1.6 1.9-0.5 3.9-0.5 2.4 0 4.3 0.4 1.9 0.4 3.3 1.3 1.4 0.8 2.1 2.1 0.8 1.3 0.8 3 0 1.3-0.9 2.3-0.9 1-2.5 1-1.4 0-2.2-0.7-0.8-0.6-0.8-1.7 0-0.8 0.4-1.2 0.3-0.4 0.8-0.7 0.4-0.2 0.8-0.4 0.4-0.2 0.3-0.5 0.1-1-1-1.6-1-0.5-2.7-0.5zm25.3 0q-1.2 0-2.2 0.3-1 0.3-1.7 0.7-0.8 0.4-1.2 0.9-0.4 0.5-0.4 1 0 0.5 0.5 0.7 0.6 0.3 1.2 0.5 0.7 0.3 1.2 0.9 0.6 0.5 0.6 1.6 0 0.8-0.3 1.4-0.3 0.6-0.8 1.1-0.5 0.4-1.2 0.7-0.7 0.3-1.4 0.3-2 0-3.2-1.4-1.2-1.3-1.2-3.5 0-2.1 1.2-3.6 1.1-1.5 2.9-2.5 1.8-1 4-1.5 2.3-0.4 4.5-0.4 2.8 0 5.2 0.6 2.5 0.6 4.4 1.8 1.9 1.3 3 3.3 1.2 2 1.2 4.8v19.7q0 0.3 0 0.7 0 0.4 0.2 0.7 0.1 0.3 0.4 0.5 0.3 0.2 0.8 0.2 0.6 0 1.1-0.5 0.6-0.4 1-0.9l0.9 0.7q-0.5 0.7-1.3 1.6-0.7 0.9-1.8 1.7-1 0.7-2.4 1.2-1.4 0.6-3.2 0.6-2.1 0-3.9-1.3-1.7-1.3-2.2-4.1-1.1 1.5-2.3 2.6-1.2 1-2.5 1.6-1.2 0.6-2.5 0.9-1.2 0.3-2.5 0.3-1.7 0-3.3-0.6-1.5-0.5-2.8-1.6-1.2-1.1-2-3-0.7-1.8-0.7-4.4 0-3.1 1.2-5.2 1.3-2 3.3-3.4 2.1-1.3 4.7-2.3 2.6-1 5.3-2.1 2-0.8 2.9-2.3 0.9-1.6 0.9-3.3 0-2.6-1.5-4.1-1.5-1.6-4.1-1.6zm5.5 15.3q0-0.9-0.5-1.3-0.6-0.5-1.4-0.5-1.3 0-2.4 0.6-1.1 0.5-1.9 1.6-0.8 1.1-1.3 2.7-0.5 1.5-0.5 3.6 0 2.1 0.3 3.4 0.3 1.3 0.8 2.1 0.5 0.8 1.2 1.1 0.6 0.3 1.3 0.3 1 0 1.8-0.5 0.8-0.5 1.3-1.2 0.6-0.7 1-1.6 0.3-0.9 0.3-1.8z"/>
			<path id="infra" fill-rule="evenodd" class="s0" d="m341.3 316.4q-1 0-1.8 0.4-0.9 0.4-1.6 1.4-0.6 0.9-1 2.3-0.4 1.4-0.4 3.5v8.5h7.7v2.2q0.3-0.2 0.6-0.4 1-0.7 2.2-1.1 1.1-0.5 2.4-0.9 1.4-0.3 2.8-0.3 1.5 0 2.6 0.4 1.1 0.4 1.7 1.1 0.7 0.6 1.1 1.4 0.4 0.8 0.6 1.6 0.2 0.9 0.2 1.6 0 0.8 0 1.3 1.4-2 2.8-3.7 0.7-0.7 1.4-1.3 0.7-0.7 1.5-1.2 0.8-0.5 1.6-0.9 0.9-0.3 1.7-0.3 1.8 0 2.8 1.1 1 1.1 1 3 0 1.2-0.2 2.3-0.2 1.1-0.7 2.6h-1q-0.2-1.1-1-1.8-0.7-0.7-2.2-0.7-1.1 0-2.1 0.4-1.1 0.4-2.1 1-1 0.6-1.9 1.3-0.8 0.7-1.6 1.3v22.6q0 0.5-0.1 1.1-0.2 0.6-0.7 1.2-0.5 0.5-1.6 0.9-1 0.4-2.9 0.4-1.8 0-2.9-0.4-1.1-0.4-1.6-1-0.6-0.6-0.7-1.3-0.2-0.6-0.2-1v-26.8q0-1-0.4-1.8-0.5-0.7-1.6-0.7-0.6 0-1 0.2-0.4 0.2-0.9 0.6l-0.8-0.9q0.4-0.3 0.8-0.6h-7.3v27.5q0 4.7-1.2 8.7-1.2 4-3.7 6.9-2.5 2.9-6.3 4.6-3.8 1.6-8.8 1.6-1.8 0-3.4-0.3-1.6-0.3-2.9-0.8-1.2-0.5-2-1.3-0.7-0.7-0.7-1.5 0-0.7 0.1-1.3 0.2-0.7 0.6-1.2 0.3-0.5 0.8-0.8 0.5-0.4 1.2-0.4 0.4 0 0.7 0.4 0.3 0.4 0.6 1 0.3 0.5 0.7 1.2 0.4 0.7 1 1.2 0.6 0.6 1.6 1 0.9 0.4 2.2 0.4 1.8 0 3.1-0.8 1.4-0.7 2.4-1.9 0.9-1.3 1.6-3 0.7-1.7 1-3.6 0.4-2 0.6-4.1 0.1-2.1 0.1-4.3v-29.2h-6.4v-2.5h6.4v-4.1q0-3 0.8-5.3 0.7-2.3 2-3.9 1.2-1.6 2.8-2.6 1.6-1 3.2-1.6 1.6-0.6 3.1-0.8 1.6-0.2 2.7-0.2 2.5 0 4.4 0.4 1.9 0.3 3.2 0.9 1.3 0.7 1.9 1.5 0.7 0.8 0.7 1.6 0 0.6-0.2 1.3-0.2 0.6-0.5 1.1-0.4 0.6-0.9 0.9-0.5 0.3-1.1 0.3-0.4 0-0.7-0.4-0.3-0.4-0.7-1-0.3-0.6-0.7-1.4-0.5-0.7-1.1-1.3-0.6-0.7-1.4-1.1-0.8-0.4-2-0.4zm43.8 18.5q-1.2 0-2.2 0.3-1 0.2-1.8 0.7-0.7 0.4-1.1 0.9-0.4 0.5-0.4 0.9 0 0.6 0.5 0.8 0.5 0.2 1.2 0.5 0.7 0.3 1.2 0.9 0.5 0.5 0.5 1.6 0 0.7-0.3 1.4-0.3 0.6-0.8 1-0.5 0.5-1.1 0.8-0.7 0.2-1.5 0.2-1.9 0-3.1-1.3-1.2-1.3-1.2-3.5 0-2.1 1.1-3.7 1.1-1.5 2.9-2.4 1.8-1 4.1-1.5 2.2-0.5 4.5-0.5 2.7 0 5.2 0.6 2.5 0.6 4.4 1.9 1.8 1.3 3 3.3 1.1 2 1.1 4.8v19.7q0 0.3 0.1 0.7 0 0.3 0.1 0.6 0.2 0.4 0.4 0.6 0.3 0.2 0.8 0.2 0.7 0 1.2-0.5 0.5-0.5 1-1l0.8 0.8q-0.5 0.7-1.2 1.6-0.7 0.9-1.8 1.6-1 0.8-2.4 1.3-1.4 0.5-3.2 0.5-2.2 0-3.9-1.3-1.7-1.3-2.2-4-1.1 1.5-2.3 2.5-1.2 1-2.5 1.6-1.2 0.7-2.5 0.9-1.3 0.3-2.6 0.3-1.6 0-3.2-0.5-1.6-0.5-2.8-1.6-1.3-1.2-2-3-0.8-1.8-0.8-4.4 0.1-3.2 1.3-5.2 1.3-2 3.3-3.4 2-1.4 4.6-2.3 2.6-1 5.3-2.1 2.1-0.8 3-2.4 0.9-1.6 0.9-3.2 0-2.6-1.5-4.2-1.5-1.5-4.1-1.5zm5.5 15.2q0-0.8-0.6-1.3-0.5-0.4-1.4-0.4-1.2 0-2.3 0.5-1.1 0.6-1.9 1.7-0.9 1-1.4 2.6-0.4 1.6-0.4 3.7 0 2 0.3 3.3 0.2 1.4 0.7 2.1 0.6 0.8 1.2 1.1 0.7 0.4 1.4 0.4 0.9 0 1.7-0.5 0.8-0.5 1.4-1.2 0.6-0.8 0.9-1.6 0.4-1 0.4-1.9zm-114.4 13.5q0 2.7-1.4 3.9-1.5 1.2-4.3 1.2-3 0-4.4-1.2-1.4-1.2-1.4-3.9v-41.9q0-0.8-0.1-1.2-0.2-0.5-0.5-0.7-0.3-0.3-0.8-0.4-0.4-0.1-0.9-0.1-0.8 0-1.9 0.3-1.2 0.2-2.4 0.7-1.3 0.5-2.5 1.2-1.3 0.7-2.3 1.6-1 0.9-1.6 2-0.6 1.2-0.6 2.4 0 1.2 0.3 1.8 0.2 0.7 0.6 1 0.4 0.3 0.8 0.4 0.4 0.1 0.6 0.1 0.9 0 1.4-0.3 0.6-0.3 1-0.6 0.5-0.3 0.9-0.6 0.4-0.3 0.9-0.3 0.4 0 0.9 0.2 0.5 0.2 0.9 0.6 0.4 0.4 0.6 1.1 0.3 0.6 0.3 1.6 0 1.4-0.5 2.4-0.6 1-1.4 1.7-0.9 0.7-2 1-1.1 0.4-2.1 0.4-1.7 0-3.1-0.6-1.3-0.6-2.2-1.6-1-1-1.5-2.4-0.4-1.3-0.4-2.9-0.1-2.4 0.8-4.4 0.9-2 2.4-3.6 1.5-1.6 3.6-2.8 2-1.2 4.4-2 2.3-0.8 4.9-1.2 2.6-0.4 5.2-0.4 2.8 0 4.4 0.6 1.6 0.5 2.3 1.3 0.8 0.7 0.9 1.6 0.2 0.8 0.2 1.4zm30-12.8q0-4.4-0.4-7-0.4-2.7-1-4-0.7-1.4-1.5-1.8-0.8-0.5-1.6-0.5-1 0-1.8 0.6-0.8 0.5-1.4 1.2-0.5 0.7-0.9 1.4-0.5 0.7-0.7 1v23.3q0 0.4-0.2 1.1-0.1 0.6-0.6 1.2-0.6 0.6-1.6 1-1.1 0.4-2.9 0.4-1.9 0-3-0.5-1-0.4-1.6-1-0.5-0.6-0.7-1.2-0.1-0.6-0.1-1v-26.9q0-1-0.5-1.7-0.5-0.8-1.6-0.8-0.6 0-1 0.2-0.4 0.2-0.9 0.6l-0.7-0.9q0.8-0.6 1.8-1.3 1-0.6 2.1-1.1 1.2-0.5 2.5-0.8 1.3-0.3 2.8-0.3 2.2 0 3.5 0.7 1.3 0.8 1.8 1.8 0.6 1.1 0.8 2.2 0.1 1.1 0.1 1.9 1.3-1.8 2.9-3.3 0.7-0.6 1.5-1.2 0.8-0.6 1.7-1.1 0.9-0.5 2-0.7 1-0.3 2.1-0.3 2.3 0 4.2 0.9 1.8 0.9 3.1 3 1.2 2.1 1.9 5.6 0.6 3.5 0.6 8.7 0 5.1-0.9 8.8-0.9 3.7-2.3 6.3-1.5 2.7-3.3 4.3-1.9 1.7-3.8 2.6-1.8 0.9-3.6 1.3-1.7 0.4-3 0.4l-0.3-1.4q1-0.3 1.9-0.8 0.9-0.5 1.6-1.5 0.7-1 1.3-2.6 0.6-1.5 1-3.9 0.4-2.3 0.6-5.5 0.1-3.2 0.1-7.4z"/>
			<path id="groups" fill-rule="evenodd" class="s0" d="m466.7 346.7h-5v20.5q0 4.7-1.6 8.2-1.6 3.6-4.5 5.9-2.9 2.4-6.8 3.5-3.9 1.2-8.6 1.2-1.8 0-3.4-0.3-1.6-0.3-2.9-0.8-1.2-0.5-2-1.3-0.7-0.7-0.7-1.5 0-0.7 0.1-1.3 0.2-0.6 0.6-1.2 0.3-0.5 0.8-0.8 0.5-0.4 1.1-0.4 0.5 0 0.7 0.4 0.3 0.4 0.6 1 0.3 0.5 0.8 1.2 0.4 0.7 1 1.2 0.6 0.6 1.5 1 0.9 0.4 2.3 0.4 2.7 0 4.7-1 2.1-1 3.5-2.7 1.3-1.8 2.1-4.3 0.7-2.4 0.7-5.4v-2.1q-1.5 0.3-3 0.5-1.4 0.1-3.3 0.1-4.7 0-8.9-1.4-4.1-1.5-7.2-4.5-3.1-3-4.9-7.7-1.7-4.7-1.7-11.2 0-4.6 0.9-8.4 1-3.8 2.8-6.9 1.7-3.1 4.1-5.4 2.4-2.3 5.2-3.9 2.8-1.6 5.9-2.4 3.1-0.8 6.3-0.8 3 0 5.7 0.6 2.6 0.6 4.5 1.7 1.9 1.1 3 2.7 1.1 1.6 1.1 3.7 0.1 0.9-0.3 1.9-0.3 1.1-0.9 1.9-0.7 0.9-1.6 1.4-1 0.5-2.2 0.5-1.5 0-2.2-0.8-0.8-0.9-1.1-2.1-0.4-1.3-0.6-2.8-0.1-1.5-0.5-2.7-0.5-1.3-1.3-2.1-0.9-0.9-2.5-0.9-1.2 0-2.8 0.6-1.5 0.6-3.1 1.9-1.5 1.2-3 3.2-1.5 2-2.7 4.7-1.2 2.8-1.9 6.4-0.7 3.5-0.7 8 0 4.9 0.6 8.4 0.6 3.5 1.7 5.9 1 2.3 2.3 3.7 1.4 1.4 2.8 2.1 1.4 0.7 2.8 0.8 1.4 0.2 2.6 0.2 1.3 0 2.3-0.2 1-0.1 1.8-0.5v-17.6h-6.2v-3.1h21.2zm16.1-7.3q1.4-2 2.8-3.7 0.7-0.7 1.4-1.3 0.7-0.7 1.5-1.2 0.8-0.5 1.6-0.8 0.9-0.3 1.7-0.4 1.8 0.1 2.8 1.1 1 1.1 1 3 0 1.2-0.2 2.3-0.2 1.1-0.7 2.6h-1q-0.2-1.1-1-1.8-0.8-0.7-2.2-0.7-1.1 0-2.1 0.4-1.1 0.4-2.1 1-1 0.6-1.9 1.3-0.8 0.7-1.6 1.3v22.6q0 0.5-0.1 1.1-0.2 0.6-0.7 1.2-0.5 0.5-1.6 0.9-1.1 0.4-2.9 0.4-1.8 0-2.9-0.4-1.1-0.4-1.6-1-0.6-0.6-0.7-1.2-0.2-0.7-0.2-1.1v-26.8q0-1-0.4-1.8-0.5-0.7-1.6-0.7-0.6 0-1 0.2-0.4 0.2-0.9 0.6l-0.8-0.9q0.8-0.7 1.8-1.3 1-0.6 2.2-1.1 1.1-0.5 2.4-0.8 1.4-0.3 2.8-0.4 1.5 0 2.6 0.5 1 0.3 1.7 1 0.7 0.6 1.1 1.4 0.4 0.8 0.6 1.7 0.2 0.8 0.2 1.5 0 0.8 0 1.3zm14.3 11q0-4.6 1.3-8 1.3-3.5 3.6-5.8 2.2-2.3 5.1-3.4 2.9-1.2 6.1-1.2 3.2 0.1 6.1 1.1 3 1.1 5.2 3.3 2.2 2.2 3.5 5.5 1.3 3.4 1.3 8 0 4.5-1.3 8.1-1.3 3.5-3.5 5.9-2.2 2.4-5.2 3.6-2.9 1.2-6.1 1.2-3.2 0-6.1-1.1-2.9-1.2-5.1-3.5-2.3-2.3-3.6-5.7-1.3-3.5-1.3-8zm21.4-0.4q0-2.8-0.2-5.4-0.2-2.6-0.7-4.6-0.6-2-1.6-3.2-1.1-1.2-2.8-1.2-1.7 0-2.7 1.3-1.1 1.2-1.6 3.3-0.6 2.1-0.8 4.7-0.1 2.7-0.1 5.5 0 2.7 0.1 5.4 0.2 2.7 0.8 4.8 0.5 2.1 1.6 3.3 1 1.3 2.7 1.3 1.7 0 2.8-1.3 1-1.4 1.6-3.5 0.5-2.2 0.7-4.9 0.2-2.7 0.2-5.5zm47.8 12.1q0 0.3 0 0.7 0 0.4 0.2 0.7 0.1 0.3 0.4 0.5 0.3 0.3 0.8 0.3 0.7 0 1.2-0.5 0.5-0.5 1-1l0.8 0.8q-0.5 0.7-1.3 1.6-0.8 0.9-1.9 1.7-1.1 0.8-2.6 1.3-1.4 0.5-3.2 0.5-1.5 0-2.7-0.4-1.1-0.4-1.9-1-0.8-0.7-1.1-1.6-0.4-1-0.4-2v-1.6q-1.8 1.9-3.7 3.3-0.8 0.7-1.8 1.3-0.9 0.5-1.9 1-1 0.5-2.1 0.8-1.1 0.2-2.1 0.2-2.1 0-3.6-0.7-1.5-0.8-2.4-2-0.9-1.2-1.3-2.7-0.4-1.6-0.4-3.1v-21.5q0-0.3-0.1-0.7 0-0.4-0.1-0.7-0.2-0.3-0.5-0.5-0.2-0.3-0.8-0.3-0.6 0-1.1 0.5-0.6 0.5-1 1l-0.9-0.8q0.6-0.7 1.3-1.6 0.8-0.9 1.9-1.7 1.2-0.8 2.6-1.3 1.5-0.6 3.2-0.6 1.6 0 2.7 0.5 1.2 0.3 1.9 1 0.8 0.7 1.2 1.6 0.3 1 0.4 2v23.3q-0.1 0.4 0.1 0.9 0.2 0.5 0.5 1 0.3 0.4 0.7 0.6 0.5 0.3 1.1 0.3 1 0 2-0.5 1-0.5 1.9-1.3 0.8-0.7 1.4-1.4 0.6-0.7 0.9-1v-20.3q0-0.3-0.1-0.7 0-0.4-0.1-0.7-0.2-0.3-0.4-0.5-0.3-0.3-0.8-0.3-0.7 0-1.2 0.5-0.5 0.5-1 1l-0.8-0.8q0.5-0.7 1.3-1.6 0.7-0.9 1.9-1.7 1.1-0.8 2.5-1.3 1.5-0.6 3.2-0.6 1.6 0 2.7 0.5 1.2 0.3 1.9 1 0.8 0.7 1.2 1.6 0.4 1 0.4 2zm9.5-23.9q0-1.1-0.4-1.8-0.5-0.8-1.6-0.8-0.6 0-1 0.2-0.4 0.3-0.9 0.6l-0.8-0.8q0.8-0.7 1.8-1.3 1-0.7 2.2-1.2 1.1-0.5 2.5-0.8 1.3-0.3 2.7-0.3 1.6 0 2.7 0.5 1.1 0.5 1.9 1.2 0.7 0.7 1.1 1.4 0.4 0.8 0.5 1.3 0.7-1 1.6-1.8 1-0.8 2.1-1.4 1.1-0.5 2.4-0.9 1.3-0.3 2.6-0.3 2.8 0 5.1 1.2 2.2 1.1 3.9 3.4 1.6 2.3 2.5 5.6 0.8 3.3 0.8 7.7 0 5.1-1 8.7-1.1 3.5-2.8 5.8-1.7 2.3-4 3.3-2.2 1-4.5 1-1.9 0-3.3-0.4-1.5-0.3-2.5-0.9-1.1-0.6-1.7-1.1-0.8-0.6-1.2-1v17q0 0.4-0.1 1.1-0.1 0.6-0.7 1.2-0.5 0.5-1.6 1-1 0.4-2.9 0.4-1.8 0-2.9-0.5-1.1-0.4-1.6-1-0.6-0.6-0.7-1.2-0.2-0.6-0.2-1zm10.7 22.2q0 0.2 0.3 0.9 0.2 0.7 0.7 1.5 0.6 0.7 1.4 1.3 0.8 0.5 2 0.5 1.5 0 2.6-1.1 1.1-1.2 1.8-3.2 0.7-2 1-4.7 0.3-2.6 0.3-5.6 0-3.8-0.4-6.3-0.4-2.6-1.2-4.2-0.7-1.6-1.8-2.3-1.1-0.7-2.4-0.7-0.8 0-1.5 0.4-0.8 0.4-1.4 1.1-0.6 0.6-1 1.4-0.4 0.8-0.4 1.6zm38.8-25.6q-0.8 0-1.5 0.3-0.7 0.2-1.3 0.6-0.5 0.5-0.8 1.2-0.4 0.7-0.3 1.7-0.1 1.4 0.9 2.7 1 1.3 2.5 2.8 1.5 1.4 3.2 3 1.7 1.5 3.2 3.3 1.5 1.7 2.5 3.6 1 2 1 4.2 0 2.5-0.9 4.5-0.8 1.9-2.4 3.3-1.6 1.3-3.8 2-2.3 0.8-5 0.8-2.4 0-4.4-0.7-1.9-0.7-3.4-1.7-1.6-1-2.6-2.1-1.1-1.1-1.7-2l1.2-0.9q0.5 0.5 1.2 1.1 0.6 0.7 1.5 1.2 0.9 0.5 1.8 0.8 1 0.4 2 0.4 2.5 0 4.1-1.2 1.6-1.2 1.6-3.6 0-1.3-0.8-2.7-0.9-1.5-2.2-2.9-1.4-1.5-2.9-3.1-1.5-1.7-2.8-3.4-1.4-1.7-2.2-3.5-0.9-1.8-0.9-3.7 0-2.2 0.9-3.9 0.9-1.6 2.3-2.7 1.5-1.1 3.4-1.6 1.9-0.5 3.9-0.5 2.4 0 4.3 0.4 1.9 0.4 3.3 1.3 1.3 0.8 2.1 2.1 0.7 1.3 0.7 3 0 1.3-0.8 2.3-0.9 1-2.5 1-1.5 0-2.2-0.7-0.8-0.6-0.8-1.7 0-0.8 0.3-1.2 0.4-0.4 0.9-0.7 0.4-0.2 0.8-0.4 0.3-0.2 0.3-0.5 0-1-1-1.6-1-0.6-2.7-0.6z"/>
		</g>
		<g id="Group 3">
			<path id="Object 8" class="s1" d="m311.3 126.3l5.5-7.6c24.7 35.8 57.4 51 95.5 43.1-48.4 25.3-73.2 2.7-101-35.5z"/>
			<path id="Object 9" class="s2" d="m197.1 37.6c24.1-16.6 50.2-9 66.4 11.9-17.1-17.3-40.5-23.8-63.2-8.2-23.6 16.3-27.2 46.1-15.2 73.2l2.1 3.8c-2.8-3.7-5.5-6.9-7.5-11.1-11.8-23.9-5-54.2 17.4-69.6z"/>
			<path id="Object 10" class="s3" d="m316.8 118.7q29.1-46.7 58.2-93.4c1-1.6 1.6-2.5 3-3.7 7-5.9 15-0.4 12.8 8.6-0.4 1.7-0.8 2.4-1.7 3.8q-14.6 23.7-29.2 47.5c-0.9 1.5-1.6 2.4-1.9 4.2-0.7 3.7 1.2 6.7 4 7.6 2.5 0.9 4.1 0 5.9-1.7q1.6-1.6 2.8-3.7 23.8-39.5 47.6-79c1-1.7 1.4-2.4 3-3.8 9.1-8.1 17.4-2.5 15.2 6-0.4 1.7-0.9 2.4-1.8 3.8q-34.4 55.3-68.8 110.6c-2.6 5.7-2.1 11 2.5 12.4 4.1 0.7 6.8-2.4 9.1-6.4q37.4-61.2 74.8-122.4c1.1-1.7 1.8-2.9 3.1-4.4 8.5-8.9 17.5-4.3 15.4 6.1-0.5 2-1.1 2.7-2.2 4.5q-26.6 42.6-53.2 85.3c-4.2 6.3-3.5 11.9 0.2 13.5 2.8 1.2 4.7 0.1 6.8-1.5 2.8-2.1 4.7-4.8 6.1-7.6q15.9-26.3 31.8-52.6c6.8-9.9 16.4-7.9 15.4 1.8-0.9 6.7-42.3 71.8-63.4 107.6-23.6 8.1-65.7 4.3-95.5-43.1z"/>
			<path id="Object 11" class="s2" d="m310 124.4c24.4 53.3 70.8 62.1 102.3 37.4-59.4 30.5-86.2-19.1-102.3-37.4z"/>
			<path id="Object 12" class="s4" d="m412.3 161.8c-16.2 26.6-32.5 53.2-48.8 79.8-5.4 8.9-10 16.3-17.8 23.7-14.3 13.7-31.4 18.7-49.9 11-8.7-3.6-12.5-6.7-18.5-13.6-27.8-32.1-66.8-107.1-89.6-143.5-2.2-3.5-3.7-5.9-5.2-9.9-8.2-20.9-5.8-49.8 14.8-65.8 4-3.1 9.4-6.4 14-8.2 16.3-6.5 34-2 48 10.2 3.3 2.9 4.1 4.4 6.4 8.1q23.1 36.9 46.2 73.9c24.4 38.9 54.3 61.4 100.4 34.3z"/>
		</g>
	</g>
</svg>