<svg version="1.2" xmlns="http://www.w3.org/2000/svg" viewBox="0 0 512 474" width="496" height="484">
	<title>visvasa</title>
	<defs>
		<linearGradient id="g1" x2="1" gradientUnits="userSpaceOnUse" gradientTransform="matrix(28.311,-25.65,16.859,18.608,252.586,226.597)">
			<stop offset="0" stop-color="#192694"/>
			<stop offset="1" stop-color="#683b9f"/>
		</linearGradient>
		<linearGradient id="g2" x2="1" gradientUnits="userSpaceOnUse" gradientTransform="matrix(-30.496,-23.008,14.825,-19.651,473.14,297.054)">
			<stop offset="0" stop-color="#0d2f99"/>
			<stop offset="1" stop-color="#31b5e1"/>
		</linearGradient>
	</defs>
	<style>
		.s0 { fill: #112073 } 
		.s1 { fill: #2ebaea } 
		.s2 { fill: url(#g1) } 
		.s3 { fill: url(#g2) } 
	</style>
	<g id="Group 1">
		<g id="Group 3">
			<path id="Object 8" class="s0" d="m233.4 213.8l9.3-12.9c41.9 60.7 97.2 86.3 161.8 73.1-82 42.7-124 4.6-171.1-60.2z"/>
			<path id="Object 9" class="s1" d="m40.1 63.7c40.8-28.2 84.9-15.3 112.4 20.1-28.9-29.3-68.6-40.3-107-13.8-40 27.6-46 78-25.8 123.8l3.6 6.4c-4.7-6.3-9.2-11.7-12.7-18.7-19.9-40.4-8.4-91.7 29.5-117.8z"/>
			<path id="Object 10" class="s2" d="m242.7 200.9q49.3-79 98.6-158c1.7-2.7 2.6-4.3 5.1-6.4 11.7-9.8 25.4-0.6 21.7 14.7-0.7 2.8-1.5 3.9-3 6.3q-24.6 40.3-49.3 80.5c-1.5 2.5-2.7 4.1-3.3 7.1-1.2 6.3 2.1 11.4 6.7 12.9 4.3 1.5 7 0 10-2.9 1.8-1.8 3.4-3.9 4.9-6.3q40.2-66.9 80.5-133.7c1.8-2.9 2.4-4.1 5-6.4 15.5-13.7 29.5-4.3 25.8 10.1-0.7 2.8-1.5 4-3 6.4q-58.2 93.7-116.5 187.3c-4.4 9.6-3.5 18.6 4.3 21 6.8 1.1 11.4-4 15.3-10.9q63.4-103.6 126.7-207.2c1.8-2.8 2.9-4.9 5.3-7.4 14.3-15.1 29.5-7.3 25.9 10.2-0.7 3.5-1.7 4.6-3.6 7.6q-45.1 72.3-90.2 144.5c-7 10.8-5.8 20.2 0.5 22.9 4.6 1.9 7.9 0.2 11.5-2.6 4.7-3.6 7.8-8 10.3-12.8q26.9-44.6 53.8-89.1c11.6-16.8 27.7-13.3 26.2 3.1-1.6 11.3-71.7 121.6-107.4 182.2-40 13.6-111.3 7.2-161.8-73.1z"/>
			<path id="Object 11" class="s1" d="m231.3 210.6c41.2 90.3 119.8 105.2 173.2 63.3-100.6 51.7-146-32.2-173.2-63.3z"/>
			<path id="Object 12" class="s3" d="m404.5 274c-27.5 45-55.1 90-82.6 135-9.3 15.1-17 27.6-30.1 40.2-24.4 23.2-53.2 31.6-84.7 18.6-14.6-6.1-21-11.3-31.2-23-47-54.5-113-181.3-151.6-242.9-3.8-6-6.4-10-9-16.8-13.7-35.5-9.7-84.3 25.2-111.5 6.7-5.2 15.9-10.8 23.7-13.9 27.5-10.9 57.5-3.2 81.2 17.4 5.7 4.9 6.9 7.4 10.8 13.6q39.2 62.5 78.3 125.1c41.3 66 91.9 104 170 58.2z"/>
		</g>
	</g>
</svg>